PathFileType	4	(X/Y/Z)	F:\PHD\Matlab_Output_Files\Ahelaos\HopStudy\HopDistance\Right\HDR_1\HDR_1.trc
DataRate	CameraRate	NumFrames	NumMarkers	Units	OrigDataRate	OrigDataStartFrame	OrigNumFrames
100.000000	100.000000	10	46	m	100.000000	223	357
Frame#	Times			LFHD			RFHD			LBHD			RBHD			C7			T10			CLAV			STRN			RBAK			LSHO			LELB			LWRA			LWRB			LFIN			RSHO			RELB			RWRA			RWRB			RFIN			LASI			RASI			SACR			RPSI			LPSI			LTHI			LTHI2			LTHI3			LKNE			LTIB			LTIB2			LTIB3			LANK			LHEE			LTOE			LLatFoot			RTHI			RTHI2			RTHI3			RKNE			RTIB			RTIB2			RTIB3			RANK			RHEE			RTOE			RLatFoot
		X1	Y1	Z1	X2	Y2	Z2	X3	Y3	Z3	X4	Y4	Z4	X5	Y5	Z5	X6	Y6	Z6	X7	Y7	Z7	X8	Y8	Z8	X9	Y9	Z9	X10	Y10	Z10	X11	Y11	Z11	X12	Y12	Z12	X13	Y13	Z13	X14	Y14	Z14	X15	Y15	Z15	X16	Y16	Z16	X17	Y17	Z17	X18	Y18	Z18	X19	Y19	Z19	X20	Y20	Z20	X21	Y21	Z21	X22	Y22	Z22	X23	Y23	Z23	X24	Y24	Z24	X25	Y25	Z25	X26	Y26	Z26	X27	Y27	Z27	X28	Y28	Z28	X29	Y29	Z29	X30	Y30	Z30	X31	Y31	Z31	X32	Y32	Z32	X33	Y33	Z33	X34	Y34	Z34	X35	Y35	Z35	X36	Y36	Z36	X37	Y37	Z37	X38	Y38	Z38	X39	Y39	Z39	X40	Y40	Z40	X41	Y41	Z41	X42	Y42	Z42	X43	Y43	Z43	X44	Y44	Z44	X45	Y45	Z45	X46	Y46	Z46

223	2.23	0.015562	1.5729	0.19118	0.025537	1.564	0.30343	-0.1302	1.6885	0.20586	-0.1034	1.659	0.33421	-0.28194	1.5592	0.26792	-0.43488	1.265	0.2504	-0.17862	1.4333	0.25662	-0.2025	1.2714	0.24043	-0.35258	1.4678	0.39911	-0.25314	1.5224	0.088294	-0.39975	1.1927	-0.020549	-0.33834	0.89636	-0.034996	-0.40599	0.89064	-0.072473	-0.34935	0.83588	-0.087122	-0.2034	1.4937	0.41364	-0.32332	1.1793	0.57592	-0.1089	0.98432	0.5138	-0.14935	0.93551	0.55816	-0.07035	0.92392	0.55896	-0.26579	1.0337	0.12187	-0.25204	1.0294	0.35414	-0.45237	1.0682	0.2396	-0.43826	1.084	0.29941	-0.4406	1.0934	0.1877	-0.28654	0.71254	0.049756	-0.20785	0.77357	0.041258	-0.20466	0.68515	0.034689	-0.14623	0.52747	0.043909	-0.27	0.38377	0.023794	-0.2119	0.35277	0.024173	-0.26143	0.32074	0.025396	-0.34326	0.15768	0.049989	-0.38244	0.16403	0.086689	-0.22237	0.071259	0.052597	-0.30776	0.060946	0.022721	-0.22097	0.74156	0.38955	-0.30729	0.69575	0.3721	-0.22992	0.66191	0.36946	-0.18821	0.50839	0.32245	-0.21476	0.30938	0.30544	-0.2784	0.3171	0.32021	-0.25812	0.2674	0.30447	-0.31198	0.10645	0.26005	-0.36238	0.11339	0.21449	-0.18624	0.047845	0.24422	-0.26884	0.029554	0.2747
224	2.24	0.016088	1.5795	0.19149	0.026206	1.5701	0.30374	-0.12909	1.6944	0.20678	-0.1028	1.6647	0.33477	-0.28147	1.5648	0.2686	-0.43209	1.2696	0.25044	-0.17767	1.4393	0.25709	-0.20034	1.2777	0.24048	-0.35165	1.4726	0.39961	-0.25304	1.5289	0.089254	-0.39877	1.1989	-0.019951	-0.33666	0.90257	-0.034485	-0.40456	0.89713	-0.07229	-0.34723	0.84164	-0.086522	-0.20275	1.4995	0.41433	-0.32133	1.1837	0.57461	-0.10946	0.98601	0.51099	-0.15039	0.93766	0.5554	-0.071436	0.92468	0.55544	-0.26219	1.0386	0.12166	-0.24916	1.0337	0.3537	-0.44906	1.0739	0.23913	-0.43518	1.0886	0.29823	-0.43723	1.0988	0.1874	-0.28813	0.71654	0.050273	-0.20757	0.7764	0.040807	-0.20626	0.68767	0.034628	-0.15026	0.52886	0.04487	-0.27264	0.38387	0.023842	-0.21436	0.35336	0.024923	-0.26335	0.32091	0.025414	-0.3436	0.15674	0.049862	-0.38331	0.16267	0.085748	-0.22196	0.070899	0.053216	-0.30691	0.059813	0.022781	-0.22292	0.74466	0.39016	-0.30992	0.70012	0.37225	-0.23311	0.66569	0.37075	-0.19383	0.51053	0.32401	-0.21876	0.311	0.30698	-0.28267	0.31804	0.32129	-0.26169	0.26855	0.30584	-0.31302	0.10652	0.26059	-0.36319	0.11301	0.21481	-0.18645	0.047709	0.24444	-0.26901	0.028866	0.27496
225	2.25	0.016421	1.5857	0.19239	0.02669	1.576	0.30428	-0.1292	1.7003	0.20791	-0.10219	1.6708	0.33624	-0.28115	1.57	0.26949	-0.42985	1.2739	0.25032	-0.17657	1.4456	0.2577	-0.19842	1.2837	0.24057	-0.35093	1.4771	0.40001	-0.25294	1.5351	0.089879	-0.39775	1.2045	-0.019947	-0.33502	0.90875	-0.03376	-0.40232	0.90288	-0.071827	-0.34522	0.84732	-0.085455	-0.20234	1.505	0.41472	-0.31942	1.1878	0.57337	-0.11039	0.98723	0.50807	-0.15142	0.93906	0.55262	-0.07276	0.92494	0.55204	-0.25893	1.0433	0.12132	-0.24616	1.0385	0.35407	-0.44581	1.0788	0.23812	-0.43206	1.0936	0.29772	-0.4339	1.1034	0.18623	-0.28935	0.72035	0.050793	-0.20763	0.77893	0.040432	-0.20769	0.69001	0.034602	-0.15391	0.52994	0.045349	-0.27506	0.38371	0.023708	-0.21643	0.35439	0.024452	-0.26543	0.32095	0.025371	-0.34426	0.15566	0.049565	-0.38391	0.16126	0.085164	-0.22174	0.070475	0.05373	-0.30634	0.058606	0.023161	-0.22496	0.74752	0.39069	-0.31273	0.70522	0.37317	-0.23655	0.66865	0.37101	-0.19963	0.51263	0.32526	-0.22264	0.31263	0.30856	-0.2867	0.31925	0.32267	-0.26511	0.26962	0.30707	-0.31384	0.10671	0.26107	-0.36403	0.11261	0.21504	-0.18671	0.047759	0.24431	-0.26918	0.028463	0.27512
226	2.26	0.016605	1.5921	0.19331	0.027196	1.5816	0.30471	-0.12903	1.7063	0.20919	-0.10191	1.676	0.33692	-0.28088	1.5749	0.27024	-0.42781	1.2781	0.25013	-0.1758	1.4511	0.25813	-0.19627	1.2895	0.2405	-0.35034	1.4813	0.40035	-0.253	1.5409	0.090673	-0.39593	1.2101	-0.019668	-0.33322	0.9138	-0.033568	-0.40061	0.90865	-0.071981	-0.34276	0.85279	-0.085107	-0.20205	1.5103	0.41539	-0.31763	1.1915	0.5722	-0.1114	0.98754	0.50517	-0.15277	0.94071	0.55049	-0.074483	0.92473	0.54862	-0.25532	1.0479	0.12123	-0.24326	1.0425	0.35409	-0.44264	1.0835	0.23735	-0.42892	1.098	0.29701	-0.43051	1.1081	0.18575	-0.29046	0.72393	0.051065	-0.20812	0.78078	0.039951	-0.20911	0.69193	0.035033	-0.15738	0.53077	0.045815	-0.27798	0.38384	0.024006	-0.21891	0.35516	0.025137	-0.26758	0.32084	0.025412	-0.34459	0.15454	0.049028	-0.38474	0.16007	0.084693	-0.22147	0.070011	0.054048	-0.30597	0.057429	0.022987	-0.22692	0.75001	0.39095	-0.31537	0.70952	0.3733	-0.2398	0.67159	0.37139	-0.20531	0.51442	0.32649	-0.22659	0.31417	0.3099	-0.29094	0.31975	0.32336	-0.26851	0.27066	0.3081	-0.31502	0.10708	0.26178	-0.36514	0.11279	0.21597	-0.18697	0.047778	0.2446	-0.26952	0.027813	0.27507
227	2.27	0.016526	1.5973	0.19308	0.027445	1.587	0.30531	-0.12874	1.7117	0.20965	-0.10159	1.6811	0.33782	-0.28081	1.5795	0.27091	-0.42557	1.2814	0.25004	-0.175	1.4564	0.25869	-0.19435	1.2945	0.24081	-0.35	1.485	0.40057	-0.25326	1.5463	0.091522	-0.39484	1.2151	-0.019731	-0.33193	0.91975	-0.032721	-0.39827	0.91351	-0.072058	-0.34076	0.85771	-0.084159	-0.20205	1.5153	0.41615	-0.31577	1.195	0.5711	-0.11244	0.988	0.50271	-0.15441	0.94141	0.54781	-0.076408	0.92403	0.5454	-0.25206	1.0519	0.1209	-0.2405	1.046	0.3539	-0.43943	1.0878	0.23675	-0.42591	1.102	0.2964	-0.42725	1.1119	0.18498	-0.29173	0.72694	0.051286	-0.20837	0.78264	0.039745	-0.21094	0.69428	0.035097	-0.16126	0.53184	0.046319	-0.28085	0.38374	0.024043	-0.22155	0.35528	0.02517	-0.26969	0.32078	0.025119	-0.34499	0.15354	0.048589	-0.38528	0.15862	0.083842	-0.22116	0.069309	0.054365	-0.30528	0.056177	0.022949	-0.22869	0.7526	0.39121	-0.3178	0.71359	0.37349	-0.24297	0.67434	0.37166	-0.21093	0.51638	0.3275	-0.2305	0.31549	0.31101	-0.29485	0.32093	0.32448	-0.27207	0.27175	0.30903	-0.31594	0.10748	0.26237	-0.36614	0.11265	0.21644	-0.18722	0.047775	0.24477	-0.26955	0.027527	0.27543
228	2.28	0.015632	1.6029	0.19332	0.02748	1.5921	0.30591	-0.12902	1.7172	0.21135	-0.10146	1.6861	0.33891	-0.28075	1.5836	0.27152	-0.42333	1.2845	0.24998	-0.17429	1.4612	0.25912	-0.19199	1.2995	0.24082	-0.34973	1.4884	0.40086	-0.25354	1.5513	0.092047	-0.39438	1.2198	-0.019286	-0.32991	0.92399	-0.032701	-0.39641	0.91836	-0.072277	-0.33833	0.86241	-0.083805	-0.202	1.5199	0.41675	-0.31417	1.1974	0.56935	-0.11363	0.98816	0.50039	-0.15615	0.9423	0.54606	-0.078516	0.92295	0.54216	-0.24853	1.0558	0.12069	-0.23764	1.0493	0.35395	-0.43623	1.0916	0.23587	-0.4229	1.1058	0.29599	-0.42432	1.1159	0.18439	-0.29259	0.7301	0.051204	-0.20839	0.7843	0.039437	-0.21221	0.69629	0.035126	-0.16524	0.5328	0.046565	-0.28345	0.38375	0.02377	-0.22374	0.35523	0.025145	-0.2718	0.32076	0.025323	-0.34555	0.15248	0.048461	-0.38609	0.15726	0.083164	-0.22085	0.068914	0.054521	-0.30478	0.055422	0.022895	-0.2304	0.75481	0.39117	-0.32012	0.71728	0.37328	-0.24587	0.67678	0.37171	-0.21628	0.51791	0.32821	-0.23452	0.31711	0.31244	-0.29904	0.32158	0.32507	-0.27567	0.27274	0.30984	-0.31706	0.10763	0.26276	-0.36695	0.11234	0.21663	-0.18744	0.047758	0.24487	-0.26972	0.027133	0.27546
229	2.29	0.015655	1.6076	0.19367	0.027639	1.5969	0.30653	-0.12957	1.7223	0.21211	-0.10158	1.6906	0.34007	-0.28083	1.5874	0.27227	-0.42124	1.2874	0.25012	-0.17367	1.466	0.25953	-0.19033	1.3042	0.2411	-0.34942	1.4916	0.40135	-0.25395	1.5559	0.092816	-0.39364	1.2245	-0.01927	-0.32812	0.9284	-0.032316	-0.39462	0.9224	-0.072334	-0.33647	0.86645	-0.083432	-0.20222	1.524	0.41736	-0.31249	1.1999	0.56805	-0.11519	0.9877	0.4981	-0.15783	0.94257	0.54423	-0.080555	0.9218	0.53943	-0.24516	1.0593	0.12047	-0.23474	1.0521	0.35387	-0.43294	1.0953	0.23539	-0.41987	1.109	0.29541	-0.4211	1.1197	0.18429	-0.29306	0.73348	0.050868	-0.20835	0.78627	0.039166	-0.21366	0.69791	0.035191	-0.16917	0.53359	0.046848	-0.28634	0.38335	0.02355	-0.22666	0.35578	0.025393	-0.27409	0.32085	0.025206	-0.34619	0.1513	0.048442	-0.3867	0.15607	0.083238	-0.22059	0.068929	0.054679	-0.30426	0.054507	0.022848	-0.23191	0.75675	0.39091	-0.32218	0.72023	0.37271	-0.24854	0.67904	0.37158	-0.22164	0.51949	0.32901	-0.23845	0.31815	0.31313	-0.30307	0.32233	0.32566	-0.27906	0.27368	0.31048	-0.31768	0.10759	0.26291	-0.36792	0.11202	0.21667	-0.18757	0.047811	0.24502	-0.26965	0.027227	0.27559
230	2.3	0.016154	1.6126	0.19476	0.027573	1.6013	0.3069	-0.12938	1.7257	0.21326	-0.10181	1.6947	0.34069	-0.2811	1.591	0.2729	-0.41923	1.2899	0.25018	-0.17308	1.4704	0.26042	-0.18835	1.3081	0.24141	-0.3493	1.4942	0.40161	-0.25414	1.56	0.093442	-0.39245	1.2282	-0.019177	-0.3269	0.93232	-0.032283	-0.39226	0.92611	-0.072739	-0.33437	0.87035	-0.08295	-0.20232	1.528	0.41818	-0.31095	1.2019	0.56683	-0.1169	0.98681	0.49575	-0.15964	0.94252	0.54239	-0.083021	0.92017	0.53664	-0.24186	1.0624	0.1202	-0.23205	1.0545	0.35373	-0.42983	1.0986	0.2348	-0.41683	1.1118	0.29501	-0.41798	1.1227	0.18378	-0.29391	0.73623	0.050518	-0.2083	0.78759	0.038966	-0.21529	0.69917	0.035407	-0.17294	0.53483	0.046788	-0.28908	0.38311	0.023591	-0.22891	0.356	0.0253	-0.27634	0.32072	0.025258	-0.34649	0.15043	0.048574	-0.38696	0.15445	0.082923	-0.22003	0.069285	0.05509	-0.30384	0.053984	0.022898	-0.23336	0.75868	0.39102	-0.32406	0.72337	0.37235	-0.2511	0.68102	0.37162	-0.2266	0.52085	0.32957	-0.24211	0.31932	0.31395	-0.30688	0.32262	0.32594	-0.28229	0.27439	0.31089	-0.31847	0.10749	0.2629	-0.36856	0.11148	0.21647	-0.18763	0.047776	0.24507	-0.26928	0.028011	0.27608
231	2.31	0.015732	1.6169	0.19538	0.027301	1.6056	0.30746	-0.13021	1.7306	0.21468	-0.10236	1.6985	0.34163	-0.28134	1.594	0.2734	-0.41707	1.2918	0.25018	-0.17281	1.4742	0.26061	-0.18631	1.312	0.24175	-0.34925	1.4966	0.40207	-0.25446	1.5637	0.094093	-0.39164	1.2318	-0.019563	-0.32504	0.93584	-0.031952	-0.39057	0.92976	-0.073025	-0.33246	0.87387	-0.082832	-0.20256	1.5315	0.41888	-0.30963	1.2037	0.56558	-0.11871	0.98561	0.49374	-0.16165	0.94242	0.54112	-0.085432	0.91823	0.53396	-0.23863	1.0651	0.11997	-0.2292	1.0565	0.35351	-0.42666	1.1014	0.23401	-0.41388	1.1146	0.29473	-0.41498	1.1255	0.18335	-0.2945	0.73874	0.050228	-0.20799	0.78933	0.038538	-0.21628	0.70087	0.034998	-0.1764	0.53544	0.046223	-0.29184	0.38323	0.023706	-0.23171	0.35644	0.025305	-0.27866	0.32043	0.025159	-0.34708	0.14968	0.048965	-0.38762	0.15326	0.083641	-0.21981	0.069576	0.055303	-0.30407	0.05354	0.023466	-0.23484	0.75995	0.39064	-0.32588	0.72635	0.37226	-0.25355	0.68255	0.37145	-0.23153	0.52178	0.32992	-0.2457	0.32026	0.3145	-0.31053	0.32289	0.32609	-0.28532	0.27483	0.3111	-0.31902	0.1073	0.26289	-0.36917	0.11138	0.21645	-0.18766	0.047722	0.24489	-0.2692	0.02833	0.27604
232	2.32	0.015238	1.6216	0.19667	0.02682	1.6096	0.30818	-0.13101	1.734	0.2154	-0.10289	1.702	0.34233	-0.28173	1.5967	0.27383	-0.41499	1.2935	0.2501	-0.17251	1.4778	0.26108	-0.18489	1.3155	0.24235	-0.3493	1.4985	0.40217	-0.25477	1.5668	0.094573	-0.39086	1.2345	-0.019425	-0.32362	0.93927	-0.032056	-0.38839	0.93276	-0.073373	-0.33054	0.87651	-0.082292	-0.2029	1.5343	0.41931	-0.30848	1.2053	0.56454	-0.12077	0.98426	0.49172	-0.16353	0.94234	0.54017	-0.088047	0.91624	0.53153	-0.23538	1.0678	0.11964	-0.2266	1.058	0.35357	-0.42374	1.1041	0.23385	-0.41102	1.1168	0.29437	-0.41202	1.1279	0.18309	-0.29512	0.74185	0.049442	-0.20778	0.79068	0.038332	-0.21733	0.70236	0.034558	-0.17986	0.53599	0.046148	-0.29459	0.38298	0.023862	-0.2343	0.35729	0.02517	-0.28116	0.32039	0.025446	-0.34813	0.14871	0.049867	-0.38816	0.1521	0.084511	-0.22023	0.069977	0.055287	-0.30394	0.053036	0.024179	-0.23613	0.76123	0.39036	-0.32764	0.72861	0.37158	-0.25597	0.68411	0.37146	-0.2361	0.52265	0.33022	-0.24901	0.32095	0.31484	-0.31387	0.32316	0.32633	-0.28839	0.27524	0.31101	-0.3195	0.10711	0.2628	-0.36999	0.11104	0.21609	-0.18772	0.047796	0.2448	-0.26924	0.028399	0.27576
